<?xml version="1.0" encoding="UTF-8"?><svg xmlns="http://www.w3.org/2000/svg" xmlns:xlink="http://www.w3.org/1999/xlink" viewBox="0 0 558.03 912.04"><defs><style>.cls-1{fill:url(#linear-gradient);}.cls-2{fill:url(#linear-gradient-5);}.cls-2,.cls-3,.cls-4,.cls-5{mix-blend-mode:multiply;opacity:.5;}.cls-3{fill:url(#linear-gradient-2);}.cls-4{fill:url(#linear-gradient-4);}.cls-5{fill:url(#linear-gradient-3);}.cls-6{isolation:isolate;}</style><linearGradient id="linear-gradient" x1="279.28" y1="373.68" x2="282.14" y2="902.62" gradientUnits="userSpaceOnUse"><stop offset="0" stop-color="#57f3ff"/><stop offset=".1" stop-color="#88dbff"/><stop offset=".29" stop-color="#d9b5ff"/><stop offset=".37" stop-color="#faa6ff"/><stop offset=".7" stop-color="#fa60a7"/><stop offset="1" stop-color="#8335e6"/></linearGradient><linearGradient id="linear-gradient-2" x1="59.68" y1="379.66" x2="59.68" y2="586.62" gradientUnits="userSpaceOnUse"><stop offset="0" stop-color="#1e71e6"/><stop offset=".13" stop-color="#4c8eeb"/><stop offset=".36" stop-color="#97bdf3"/><stop offset=".55" stop-color="#cfe1f9"/><stop offset=".69" stop-color="#f2f6fd"/><stop offset=".76" stop-color="#fff"/></linearGradient><linearGradient id="linear-gradient-3" x1="493.64" y1="272.4" x2="493.64" y2="591.39" xlink:href="#linear-gradient-2"/><linearGradient id="linear-gradient-4" x1="191.1" y1="165.56" x2="191.1" y2="484.28" xlink:href="#linear-gradient-2"/><linearGradient id="linear-gradient-5" x1="317.22" y1="4.76" x2="317.22" y2="471.81" xlink:href="#linear-gradient-2"/></defs><g class="cls-6"><g id="Layer_2"><g id="Layer_1-2"><g><path class="cls-1" d="M558.02,269.16c-175.53-7.39-114.02,193.58-188.51,193.58-20.76,0-39.09-16.82-39.09-39.11,0-35.73,51.8-84.46,51.8-168.48C382.22,152.47,263.97,137.41,263.97,0c-94.72,144.13,20.41,208.74,20.41,283.21,0,23.48-19.06,48.27-48.29,48.27-61.77,0-59.5-90.34-57.27-169.16-121.76,159.74,10.26,218.85,10.26,269.79,0,13.55-10.21,27.48-25.31,30.14h-.02c-1.7,.31-3.45,.47-5.26,.47-48.29,0-40.26-102.57-158.49-85.19,70.35,65.51,54.63,126.98,40.13,198.81-5.7,28.26-11.21,58.11-11.21,90.45,0,18,1.86,35.58,5.4,52.55,0,0,21.56,138.21,165.43,184.62-2.98-8.6-4.6-17.86-4.6-27.48,0-46.32,37.54-83.86,83.86-83.86s83.88,37.54,83.88,83.86c0,12.71-2.83,24.76-7.89,35.55,108.87-29.19,186.01-145.22,186.01-245.24,0-45.3-9.17-78.95-20.5-107.19-35.11-87.33-91.21-122.95,37.52-290.46Zm-144.22,380.93l-16.71,16.71-118.53-118.53-71.17,71.15,94.81,94.81,23.72-23.72-71.08-71.09,23.72-23.72,94.81,94.81-94.37,94.37-31.26-31.26-103.52-103.54c-17.2-17.18-17.2-45.32,0-62.51l134.78-134.78,31.26,31.26,103.54,103.52c17.18,17.2,17.18,45.33,0,62.51Z"/><path class="cls-3" d="M119.35,540.62c-26.2,53.58-52.71,51.13-79.22,35.73C54.63,504.53,70.34,443.05,0,377.55c60.57,10.24,107.41,70.03,119.35,163.07Z"/><path class="cls-5" d="M520.5,559.61c-33.28,36.81-97.38,59.11-90.77-44.64,10.11-158.69,67.57-228.7,128.29-245.82-128.73,167.51-72.63,203.13-37.53,290.45Z"/><path class="cls-4" d="M163.77,462.26c15.11-2.68,25.31-16.6,25.31-30.14,0-50.95-132.03-110.07-10.27-269.81-38.51,111.5-23.73,162.07,53.29,249.97,66.4,97.38-29.09,73.67-68.33,49.97Z"/><path class="cls-2" d="M369.53,462.73c1.43,0,2.85-.08,4.23-.22-36.92,19.24-77.32,.62-88.51-32.76-20.24-57.1,47.98-94.73,47.98-172.26S215.38,149.75,263.98,0c0,137.39,118.24,152.47,118.24,255.15,0,84.01-51.79,132.74-51.79,168.48,0,22.29,18.34,39.1,39.1,39.1Z"/></g></g></g></g></svg>