<?xml version="1.0" encoding="utf-8"?>
<!-- Generator: Adobe Illustrator 26.5.0, SVG Export Plug-In . SVG Version: 6.00 Build 0)  -->
<svg version="1.1"
	 id="SVGRoot" xmlns:sodipodi="http://sodipodi.sourceforge.net/DTD/sodipodi-0.dtd" xmlns:inkscape="http://www.inkscape.org/namespaces/inkscape" xmlns:cc="http://creativecommons.org/ns#" xmlns:rdf="http://www.w3.org/1999/02/22-rdf-syntax-ns#" xmlns:dc="http://purl.org/dc/elements/1.1/" xmlns:svg="http://www.w3.org/2000/svg"
	 xmlns="http://www.w3.org/2000/svg" xmlns:xlink="http://www.w3.org/1999/xlink" x="0px" y="0px" viewBox="0 0 280 240"
	 style="enable-background:new 0 0 280 240;" xml:space="preserve">
<style type="text/css">
	.st0{fill:url(#SVGID_1_);}
	.st1{opacity:0.5;fill:url(#SVGID_00000003809526393290855110000007859571448016588454_);}
	.st2{opacity:0.5;fill:url(#SVGID_00000142143796285180010820000017072614848890856349_);}
	.st3{opacity:0.5;fill:url(#SVGID_00000108277402821517681400000004715815764030809249_);}
	.st4{opacity:0.5;fill:url(#SVGID_00000015324810306997622210000006153050972315180937_);}
</style>
<sodipodi:namedview  bordercolor="#666666" borderopacity="1.0" id="base" inkscape:current-layer="g156" inkscape:cx="139.09115" inkscape:cy="101.41323" inkscape:document-units="px" inkscape:guide-bbox="true" inkscape:pageopacity="0.0" inkscape:pageshadow="2" inkscape:window-height="713" inkscape:window-maximized="1" inkscape:window-width="1299" inkscape:window-x="67" inkscape:window-y="27" inkscape:zoom="1.9966906" pagecolor="#ffffff" showgrid="false" showguides="true">
	<sodipodi:guide  id="guide1322" inkscape:locked="false" orientation="1,0" position="139.76871,279.84394"></sodipodi:guide>
	<sodipodi:guide  id="guide838" inkscape:locked="false" orientation="0,1" position="140.07267,214.3789"></sodipodi:guide>
	<sodipodi:guide  id="guide840" inkscape:locked="false" orientation="1,0" position="276.88847,146.64288"></sodipodi:guide>
	<sodipodi:guide  id="guide842" inkscape:locked="false" orientation="0,1" position="276.88847,126.64446"></sodipodi:guide>
	<sodipodi:guide  id="guide844" inkscape:locked="false" orientation="1,0" position="3.5159678,125.09796"></sodipodi:guide>
</sodipodi:namedview>
<g>
	<linearGradient id="SVGID_1_" gradientUnits="userSpaceOnUse" x1="136.1931" y1="98.3332" x2="136.9455" y2="237.5205">
		<stop  offset="0" style="stop-color:#57F3FF"/>
		<stop  offset="0.1046" style="stop-color:#88DCFF"/>
		<stop  offset="0.2873" style="stop-color:#DAB5FF"/>
		<stop  offset="0.371" style="stop-color:#FAA6FF"/>
		<stop  offset="0.7043" style="stop-color:#FA60A7"/>
		<stop  offset="1" style="stop-color:#8335E6"/>
	</linearGradient>
	<path class="st0" d="M209.5,70.8c-46.2-1.9-30,50.9-49.6,50.9c-5.5,0-10.3-4.4-10.3-10.3c0-9.4,13.6-22.2,13.6-44.3
		c0-27-31.1-31-31.1-67.1c-24.9,37.9,5.4,54.9,5.4,74.5c0,6.2-5,12.7-12.7,12.7c-16.3,0-15.7-23.8-15.1-44.5c-32,42,2.7,57.6,2.7,71
		c0,3.6-2.7,7.2-6.7,7.9h0c-0.4,0.1-0.9,0.1-1.4,0.1c-12.7,0-10.6-27-41.7-22.4c18.5,17.2,14.4,33.4,10.6,52.3
		c-1.5,7.4-2.9,15.3-2.9,23.8c0,4.7,0.5,9.4,1.4,13.8c0,0,5.7,36.4,43.5,48.6c-0.8-2.3-1.2-4.7-1.2-7.2c0-12.2,9.9-22.1,22.1-22.1
		s22.1,9.9,22.1,22.1c0,3.3-0.7,6.5-2.1,9.4c28.6-7.7,48.9-38.2,48.9-64.5c0-11.9-2.4-20.8-5.4-28.2
		C190.4,124.3,175.7,114.9,209.5,70.8z M171.6,171.1l-4.4,4.4L136,144.3L117.3,163l24.9,24.9l6.2-6.2L129.8,163l6.2-6.2l24.9,24.9
		l-24.8,24.8l-8.2-8.2l-27.2-27.2c-4.5-4.5-4.5-11.9,0-16.5l35.5-35.5l8.2,8.2l27.2,27.2C176.1,159.1,176.1,166.5,171.6,171.1z"/>
	
		<linearGradient id="SVGID_00000037686179457405524470000007627126541022956949_" gradientUnits="userSpaceOnUse" x1="78.4052" y1="99.9047" x2="78.4052" y2="154.3674">
		<stop  offset="0" style="stop-color:#1E71E6"/>
		<stop  offset="0.1292" style="stop-color:#4C8EEB"/>
		<stop  offset="0.358" style="stop-color:#98BEF4"/>
		<stop  offset="0.5474" style="stop-color:#D0E1FA"/>
		<stop  offset="0.6877" style="stop-color:#F2F7FE"/>
		<stop  offset="0.7634" style="stop-color:#FFFFFF"/>
	</linearGradient>
	<path style="opacity:0.5;fill:url(#SVGID_00000037686179457405524470000007627126541022956949_);" d="M94.1,142.3
		c-6.9,14.1-13.9,13.5-20.8,9.4c3.8-18.9,8-35.1-10.6-52.3C78.6,102,91,117.8,94.1,142.3z"/>
	
		<linearGradient id="SVGID_00000029047987692285724250000010144083497776803973_" gradientUnits="userSpaceOnUse" x1="192.6012" y1="71.6817" x2="192.6012" y2="155.6204">
		<stop  offset="0" style="stop-color:#1E71E6"/>
		<stop  offset="0.1292" style="stop-color:#4C8EEB"/>
		<stop  offset="0.358" style="stop-color:#98BEF4"/>
		<stop  offset="0.5474" style="stop-color:#D0E1FA"/>
		<stop  offset="0.6877" style="stop-color:#F2F7FE"/>
		<stop  offset="0.7634" style="stop-color:#FFFFFF"/>
	</linearGradient>
	<path style="opacity:0.5;fill:url(#SVGID_00000029047987692285724250000010144083497776803973_);" d="M199.7,147.3
		c-8.8,9.7-25.6,15.6-23.9-11.7c2.7-41.8,17.8-60.2,33.8-64.7C175.7,114.9,190.4,124.3,199.7,147.3z"/>
	
		<linearGradient id="SVGID_00000166659277928693352230000009763903076346397620_" gradientUnits="userSpaceOnUse" x1="112.9883" y1="43.5673" x2="112.9883" y2="127.436">
		<stop  offset="0" style="stop-color:#1E71E6"/>
		<stop  offset="0.1292" style="stop-color:#4C8EEB"/>
		<stop  offset="0.358" style="stop-color:#98BEF4"/>
		<stop  offset="0.5474" style="stop-color:#D0E1FA"/>
		<stop  offset="0.6877" style="stop-color:#F2F7FE"/>
		<stop  offset="0.7634" style="stop-color:#FFFFFF"/>
	</linearGradient>
	<path style="opacity:0.5;fill:url(#SVGID_00000166659277928693352230000009763903076346397620_);" d="M105.8,121.6
		c4-0.7,6.7-4.4,6.7-7.9c0-13.4-34.7-29-2.7-71c-10.1,29.3-6.2,42.6,14,65.8C141.3,134.1,116.1,127.9,105.8,121.6z"/>
	
		<linearGradient id="SVGID_00000176723967304272429570000013707163270534159283_" gradientUnits="userSpaceOnUse" x1="146.177" y1="1.2517" x2="146.177" y2="124.1539">
		<stop  offset="0" style="stop-color:#1E71E6"/>
		<stop  offset="0.1292" style="stop-color:#4C8EEB"/>
		<stop  offset="0.358" style="stop-color:#98BEF4"/>
		<stop  offset="0.5474" style="stop-color:#D0E1FA"/>
		<stop  offset="0.6877" style="stop-color:#F2F7FE"/>
		<stop  offset="0.7634" style="stop-color:#FFFFFF"/>
	</linearGradient>
	<path style="opacity:0.5;fill:url(#SVGID_00000176723967304272429570000013707163270534159283_);" d="M159.9,121.8
		c0.4,0,0.7,0,1.1-0.1c-9.7,5.1-20.3,0.2-23.3-8.6c-5.3-15,12.6-24.9,12.6-45.3c0-20.4-31-28.4-18.2-67.8
		c0,36.2,31.1,40.1,31.1,67.1c0,22.1-13.6,34.9-13.6,44.3C149.7,117.3,154.5,121.8,159.9,121.8z"/>
</g>
</svg>
